<?xml version="1.0" encoding="utf-8"?>
<!-- Generated by IcoMoon.io -->
<!DOCTYPE svg PUBLIC "-//W3C//DTD SVG 1.1//EN" "http://www.w3.org/Graphics/SVG/1.1/DTD/svg11.dtd">
<svg version="1.1" xmlns="http://www.w3.org/2000/svg" xmlns:xlink="http://www.w3.org/1999/xlink" width="24" height="24" viewBox="0 0 24 24">
<g>
	<line stroke-width="1" x1="" y1="" x2="" y2="" stroke="#449FDB" opacity=""></line>
</g>
	<path d="M12 0c-4.142 0-7.5 3.358-7.5 7.5 0 7.5 7.5 16.5 7.5 16.5s7.5-9 7.5-16.5c0-4.142-3.358-7.5-7.5-7.5zM12 12.094c-2.537 0-4.594-2.057-4.594-4.594s2.057-4.594 4.594-4.594 4.594 2.057 4.594 4.594-2.057 4.594-4.594 4.594zM9.094 7.5c0-1.605 1.301-2.906 2.906-2.906s2.906 1.301 2.906 2.906c0 1.605-1.301 2.906-2.906 2.906s-2.906-1.301-2.906-2.906z" fill="#000000"></path>
</svg>
