<?xml version="1.0" encoding="utf-8"?>
<!-- Generator: Adobe Illustrator 17.0.0, SVG Export Plug-In . SVG Version: 6.00 Build 0)  -->
<!DOCTYPE svg PUBLIC "-//W3C//DTD SVG 1.1//EN" "http://www.w3.org/Graphics/SVG/1.1/DTD/svg11.dtd">
<svg version="1.1" id="Layer_1" xmlns="http://www.w3.org/2000/svg" xmlns:xlink="http://www.w3.org/1999/xlink" x="0px" y="0px"
	 width="190px" height="55px" viewBox="0 0 190 55" enable-background="new 0 0 190 55" xml:space="preserve">
<g>
	<path fill="#DBE68C" d="M12.024,52.951c-0.63,0.63-1.373,0.945-2.232,0.945s-1.594-0.315-2.203-0.945
		c-0.611-0.629-0.916-1.344-0.916-2.145V17.562c0-0.838,0.295-1.554,0.887-2.145c0.591-0.591,1.296-0.887,2.116-0.887
		c0.82,0,1.525,0.229,2.118,0.687c0.591,0.457,0.944,1.011,1.058,1.659c2.403-1.564,4.996-2.347,7.781-2.347
		c3.815,0,7.075,1.412,9.784,4.235c2.708,2.823,4.063,6.199,4.063,10.127c0,3.929-1.354,7.277-4.063,10.042
		c-2.71,2.765-5.97,4.148-9.784,4.148c-2.938,0-5.493-0.781-7.668-2.346v10.07C12.967,51.607,12.654,52.322,12.024,52.951
		 M26.013,23.112c-1.487-1.564-3.3-2.345-5.435-2.345c-2.137,0-3.939,0.792-5.407,2.374c-1.469,1.584-2.203,3.558-2.203,5.923
		c0,2.365,0.745,4.216,2.232,5.55c1.45,1.602,3.233,2.403,5.35,2.403s3.928-0.801,5.435-2.403c1.506-1.602,2.26-3.499,2.26-5.693
		C28.245,26.727,27.501,24.791,26.013,23.112"/>
	<path fill="#DBE68C" d="M64.463,28.09c0,0.839-0.277,1.516-0.83,2.031c-0.553,0.515-1.287,0.773-2.203,0.773H43.235
		c0.344,1.64,0.992,2.899,1.945,3.777c1.221,1.411,3.004,2.26,5.35,2.546c2.346,0.286,4.377-0.181,6.093-1.401
		c0.572-0.61,1.335-0.916,2.289-0.916c0.953,0,1.621,0.248,2.002,0.744c1.068,1.182,1.068,2.422,0,3.719
		c-2.746,2.518-6.113,3.767-10.099,3.748c-3.986-0.019-7.325-1.421-10.014-4.205c-2.69-2.784-4.054-6.142-4.091-10.07
		c0.037-3.928,1.401-7.296,4.091-10.099c2.689-2.804,5.942-4.206,9.755-4.206c3.814,0,7.029,1.25,9.642,3.748
		c2.612,2.499,4.033,5.675,4.262,9.527V28.09z M50.674,19.965c-2.213,0.115-3.987,0.801-5.322,2.06
		c-1.336,1.258-2.137,2.595-2.403,4.005h16.192c-0.342-1.335-1.269-2.632-2.774-3.891C54.859,20.88,52.963,20.156,50.674,19.965"/>
	<path fill="#DBE68C" d="M94.331,40.049c0,0.839-0.306,1.564-0.915,2.174c-0.611,0.611-1.316,0.916-2.117,0.916
		s-1.479-0.238-2.031-0.715c-0.554-0.477-0.907-1.059-1.058-1.745c-2.404,1.64-4.999,2.46-7.782,2.46
		c-3.853,0-7.133-1.403-9.841-4.206c-2.71-2.803-4.063-6.159-4.063-10.07c0-3.909,1.353-7.276,4.063-10.099
		c2.707-2.822,5.988-4.233,9.841-4.233c2.823,0,5.379,0.8,7.668,2.403V6.175c0-0.838,0.306-1.564,0.915-2.174
		c0.61-0.61,1.345-0.915,2.203-0.915c0.858,0,1.592,0.305,2.203,0.915c0.609,0.61,0.915,1.336,0.915,2.174V40.049z M80.426,36.901
		c2.098,0,3.9-0.791,5.407-2.375c1.507-1.582,2.26-3.47,2.26-5.665c0-2.193-0.743-4.091-2.232-5.693
		c-1.488-1.602-3.3-2.403-5.436-2.403c-2.137,0-3.948,0.802-5.436,2.403c-1.487,1.602-2.23,3.5-2.23,5.693
		c0,2.194,0.752,4.083,2.26,5.665C76.526,36.11,78.329,36.901,80.426,36.901"/>
	<path fill="#DBE68C" d="M100.767,38.961c-2.613-2.784-3.919-6.151-3.919-10.099c0-3.948,1.306-7.323,3.919-10.127
		c2.613-2.803,5.845-4.205,9.699-4.205c2.708,0,5.245,0.839,7.61,2.517c0.19-0.724,0.553-1.325,1.087-1.802
		c0.534-0.477,1.192-0.715,1.974-0.715c0.781,0,1.468,0.305,2.06,0.915c0.591,0.611,0.887,1.335,0.887,2.174v22.487
		c0,0.839-0.295,1.554-0.887,2.145c-0.592,0.592-1.278,0.887-2.06,0.887c-0.783,0-1.44-0.229-1.974-0.687
		c-0.534-0.458-0.897-1.049-1.087-1.774c-2.327,1.64-4.864,2.46-7.61,2.46C106.612,43.138,103.38,41.746,100.767,38.961
		 M102.97,28.862c0,2.309,0.695,4.244,2.088,5.808c1.393,1.565,3.185,2.346,5.379,2.346c2.194,0,4.006-0.781,5.436-2.346
		c1.431-1.563,2.146-3.49,2.146-5.779c0-2.289-0.726-4.234-2.175-5.836c-1.45-1.602-3.253-2.403-5.407-2.403
		c-2.155,0-3.939,0.792-5.35,2.375C103.676,24.61,102.97,26.555,102.97,28.862"/>
	<path fill="#DBE68C" d="M128.26,6.233c0-0.877,0.305-1.621,0.916-2.232c0.61-0.61,1.354-0.916,2.231-0.916
		c0.877,0,1.631,0.306,2.26,0.916c0.63,0.611,0.944,1.354,0.944,2.232v33.759c0,0.878-0.314,1.621-0.944,2.232
		c-0.63,0.611-1.383,0.915-2.26,0.915c-0.877,0-1.621-0.305-2.231-0.915c-0.611-0.61-0.916-1.354-0.916-2.232V6.233z"/>
	<path fill="#DBE68C" d="M141.276,38.961c-2.614-2.784-3.919-6.151-3.919-10.099c0-3.948,1.305-7.323,3.919-10.127
		c2.612-2.803,5.844-4.205,9.697-4.205c2.709,0,5.245,0.839,7.611,2.517c0.19-0.724,0.552-1.325,1.087-1.802
		c0.533-0.477,1.191-0.715,1.974-0.715c0.781,0,1.469,0.305,2.06,0.915c0.591,0.611,0.887,1.335,0.887,2.174v22.487
		c0,0.839-0.296,1.554-0.887,2.145c-0.591,0.592-1.278,0.887-2.06,0.887c-0.783,0-1.44-0.229-1.974-0.687
		c-0.535-0.458-0.897-1.049-1.087-1.774c-2.328,1.64-4.864,2.46-7.611,2.46C147.121,43.138,143.888,41.746,141.276,38.961
		 M143.479,28.862c0,2.309,0.695,4.244,2.089,5.808c1.392,1.565,3.184,2.346,5.378,2.346c2.193,0,4.006-0.781,5.436-2.346
		c1.43-1.563,2.146-3.49,2.146-5.779c0-2.289-0.726-4.234-2.175-5.836c-1.45-1.602-3.252-2.403-5.407-2.403
		c-2.156,0-3.939,0.792-5.35,2.375C144.184,24.61,143.479,26.555,143.479,28.862"/>
	<path fill="#DBE68C" d="M170.227,15.474c0.591-0.591,1.326-0.887,2.203-0.887c0.876,0,1.611,0.296,2.202,0.887
		c0.591,0.592,0.887,1.345,0.887,2.26v22.314c0,0.878-0.296,1.612-0.887,2.203c-0.592,0.591-1.316,0.887-2.174,0.887
		c-0.858,0-1.593-0.305-2.203-0.915c-0.611-0.61-0.915-1.335-0.915-2.175V17.734C169.341,16.818,169.636,16.065,170.227,15.474
		 M179.582,8.979c-1.107,1.03-2.346,1.545-3.719,1.545c-1.374,0-2.061-0.401-2.061-1.201c0-0.381,0.152-0.802,0.459-1.259
		l3.261-5.035c0.688-1.106,1.555-1.659,2.604-1.659c1.049,0,2.022,0.238,2.918,0.715c0.897,0.478,1.344,0.993,1.344,1.545
		c0,0.554-0.323,1.116-0.972,1.688L179.582,8.979z"/>
</g>
</svg>
