<?xml version="1.0" encoding="iso-8859-1"?>
<!-- Generator: Adobe Illustrator 16.0.0, SVG Export Plug-In . SVG Version: 6.00 Build 0)  -->
<!DOCTYPE svg PUBLIC "-//W3C//DTD SVG 1.1//EN" "http://www.w3.org/Graphics/SVG/1.1/DTD/svg11.dtd">
<svg version="1.1" id="Capa_1" xmlns="http://www.w3.org/2000/svg" xmlns:xlink="http://www.w3.org/1999/xlink" x="0px" y="0px"
	 width="474.514px" height="474.514px" viewBox="0 0 474.514 474.514" style="enable-background:new 0 0 474.514 474.514;"
	 xml:space="preserve">
<g>
	<path d="M380.016,195.506c-5.061,0-10.021,0.404-14.867,1.173l-14.891-51.793v-32.267l14.5,1.387v-23l-61,5.834v11.333l23.5,2.247
		v24.586H187.244l5.344-10.379V113.01l30.22-0.003v-23l-61.103,0.006l0.026,21.456l7.857,7.584l-42.373,82.295
		c-10.199-3.775-21.22-5.842-32.715-5.842C42.393,195.506,0,237.9,0,290.007c0,52.107,42.393,94.5,94.5,94.5s94.5-42.393,94.5-94.5
		c0-32.416-16.408-61.069-41.353-78.099l7.197-13.979l51.793,73.48c-2.779,5.048-4.363,10.845-4.363,17.014
		c0,19.514,15.819,35.333,35.333,35.333c14.89,0,27.622-9.215,32.82-22.25h15.786c5.691,46.703,45.586,83,93.801,83
		c52.105,0,94.5-42.394,94.5-94.5C474.514,237.9,432.121,195.506,380.016,195.506z M166.001,290.007c0,39.424-32.075,71.5-71.5,71.5
		c-39.425,0-71.5-32.076-71.5-71.5c0-39.426,32.075-71.501,71.5-71.501c7.703,0,15.119,1.239,22.076,3.504l-32.3,62.731
		l20.448,10.528l32.29-62.711C154.588,245.599,166.001,266.493,166.001,290.007z M364.742,278.507h-55.291
		c3.82-23.523,19.152-43.23,40.016-53.131L364.742,278.507z M237.608,305.757c-9.558,0-17.333-7.775-17.333-17.333
		s7.775-17.333,17.333-17.333s17.333,7.775,17.333,17.333S247.166,305.757,237.608,305.757z M250.361,255.474
		c-3.957-1.533-8.256-2.383-12.753-2.383c-4.888,0-9.544,0.993-13.778,2.788l-57.106-81.019l8.678-16.854h141.567L250.361,255.474z
		 M271.521,278.507c-0.836-2.863-2.021-5.574-3.515-8.088l66.452-97.241l8.586,29.863c-30.414,12.979-52.688,41.465-56.828,75.466
		H271.521z M380.016,361.507c-35.512,0-65.045-26.025-70.564-60h85.836l-23.715-82.485c2.771-0.328,5.586-0.516,8.443-0.516
		c39.424,0,71.5,32.075,71.5,71.501C451.516,329.431,419.439,361.507,380.016,361.507z"/>
</g>
<g>
</g>
<g>
</g>
<g>
</g>
<g>
</g>
<g>
</g>
<g>
</g>
<g>
</g>
<g>
</g>
<g>
</g>
<g>
</g>
<g>
</g>
<g>
</g>
<g>
</g>
<g>
</g>
<g>
</g>
</svg>
